<svg width="512" height="512" viewBox="0 0 512 512" fill="none" xmlns="http://www.w3.org/2000/svg">
  <rect width="512" height="512" rx="100" fill="url(#bg_gradient)"/>
  
  <!-- Outer Shield Shape -->
  <path d="M256 460C256 460 436 380 436 220V90L256 30L76 90V220C76 380 256 460 256 460Z" fill="url(#shield_gradient)"/>
  
  <!-- Inner Shield Highlight -->
  <path d="M256 440C256 440 416 370 416 226V108L256 54L96 108V226C96 370 256 440 256 440Z" stroke="white" stroke-opacity="0.2" stroke-width="8"/>

  <!-- Network / Sync Icon -->
  <g transform="translate(146, 146) scale(0.86)">
    <path d="M21.3 128C21.3 68.8 68.8 21.3 128 21.3C187.2 21.3 234.7 68.8 234.7 128" stroke="white" stroke-width="28" stroke-linecap="round"/>
    <path d="M234.7 128C234.7 187.2 187.2 234.7 128 234.7C68.8 234.7 21.3 187.2 21.3 128" stroke="white" stroke-width="28" stroke-linecap="round" stroke-dasharray="24 24"/>
    <circle cx="128" cy="128" r="48" fill="white"/>
  </g>

  <defs>
    <linearGradient id="bg_gradient" x1="0" y1="0" x2="512" y2="512" gradientUnits="userSpaceOnUse">
      <stop stop-color="#fff7ed"/> <!-- heavy light orange/white tint -->
      <stop offset="1" stop-color="#ffedd5"/>
    </linearGradient>
    
    <linearGradient id="shield_gradient" x1="256" y1="30" x2="256" y2="460" gradientUnits="userSpaceOnUse">
      <stop stop-color="#ea580c"/> <!-- Primary Orange -->
      <stop offset="1" stop-color="#c2410c"/> <!-- Darker Orange (Primary Hover) -->
    </linearGradient>
  </defs>
</svg>
